<svg xmlns="http://www.w3.org/2000/svg" width="306.497" height="124.572" viewBox="0 0 306.497 124.572">
  <g id="Grupo_7" data-name="Grupo 7" transform="translate(-811.362 -369.714)">
    <path id="Trazado_10" data-name="Trazado 10" d="M814.19,396.853l13.947-13.947a37.438,37.438,0,0,1,52.946,0l2.761,2.761a37.438,37.438,0,0,0,52.946,0h0a37.438,37.438,0,0,1,52.946,0l1.177,1.177a37.44,37.44,0,0,0,52.946,0l4.165-4.165a37.439,37.439,0,0,1,52.946,0l14.062,14.062" transform="translate(0)" fill="none" stroke="#662D91" stroke-linecap="round" stroke-linejoin="round" stroke-width="4"/>
    <path id="Trazado_11" data-name="Trazado 11" d="M814.19,437.748,828.137,423.8a37.438,37.438,0,0,1,52.946,0l2.761,2.761a37.438,37.438,0,0,0,52.946,0h0a37.438,37.438,0,0,1,52.946,0l1.177,1.177a37.439,37.439,0,0,0,52.946,0l4.165-4.165a37.439,37.439,0,0,1,52.946,0l14.062,14.062" transform="translate(0 -9.403)" fill="none" stroke="#662D91" stroke-linecap="round" stroke-linejoin="round" stroke-width="4"/>
    <path id="Trazado_12" data-name="Trazado 12" d="M814.19,478.643,828.137,464.7a37.438,37.438,0,0,1,52.946,0l2.761,2.762a37.438,37.438,0,0,0,52.946,0h0a37.438,37.438,0,0,1,52.946,0l1.177,1.177a37.439,37.439,0,0,0,52.946,0l4.165-4.165a37.439,37.439,0,0,1,52.946,0l14.062,14.062" transform="translate(0 -18.806)" fill="none" stroke="#662D91" stroke-linecap="round" stroke-linejoin="round" stroke-width="4"/>
    <path id="Trazado_13" data-name="Trazado 13" d="M814.19,519.538l13.947-13.947a37.438,37.438,0,0,1,52.946,0l2.761,2.761a37.438,37.438,0,0,0,52.946,0h0a37.438,37.438,0,0,1,52.946,0l1.177,1.177a37.439,37.439,0,0,0,52.946,0l4.165-4.165a37.439,37.439,0,0,1,52.946,0l14.062,14.062" transform="translate(0 -28.209)" fill="none" stroke="#662D91" stroke-linecap="round" stroke-linejoin="round" stroke-width="4"/>
  </g>
</svg>
