<svg xmlns="http://www.w3.org/2000/svg" width="38" height="42" viewBox="0 0 38 42">
  <g id="Grupo_671" data-name="Grupo 671" transform="translate(-1742 -159)">
    <rect id="Rectángulo_540" data-name="Rectángulo 540" width="38" height="42" rx="5" transform="translate(1742 159)" fill="#f04927"/>
    <path id="Trazado_104" data-name="Trazado 104" d="M884.145,53.22l.008-1.414a3.251,3.251,0,0,0-.521-2.063,1.9,1.9,0,0,0-1.556-.657q-2.088-.013-2.1,2.617a5.319,5.319,0,0,0,.763,2.795,15.156,15.156,0,0,0,2.811,3.157,16.053,16.053,0,0,1,3.583,4.3,9.79,9.79,0,0,1,.963,4.524,7.537,7.537,0,0,1-1.645,5.175,5.971,5.971,0,0,1-4.7,1.779c-.15,0-.3-.006-.442-.014-.114-.006-.225-.014-.337-.022s-.208-.019-.311-.036-.2-.025-.3-.042a5.233,5.233,0,0,1-3.1-1.609v.008a1.629,1.629,0,0,1-.117-.128,8.829,8.829,0,0,1-1.509-5.537l.006-1.139,1.228.006v0l2.722.014-.011,1.888a3.29,3.29,0,0,0,.448,1.89c.02.028.036.056.058.081a.254.254,0,0,0,.022.03,1.124,1.124,0,0,0,.12.134,2.017,2.017,0,0,0,.178.159l.053.036a1.89,1.89,0,0,0,1.01.339,1.439,1.439,0,0,0,.189.011h.1a2.194,2.194,0,0,0,.6-.064,1.779,1.779,0,0,0,.983-.573,3.251,3.251,0,0,0,.562-2.1,5.962,5.962,0,0,0-.741-3.048,14.442,14.442,0,0,0-2.795-3.176,17.313,17.313,0,0,1-3.586-4.282,8.346,8.346,0,0,1-.487-1.136,16.076,16.076,0,0,1-.3-5.178,6.272,6.272,0,0,1,1.409-3.031,5.882,5.882,0,0,1,4.646-1.76,5.659,5.659,0,0,1,4.529,1.812A7.624,7.624,0,0,1,888.1,52.1l-.006,1.138Z" transform="translate(879.131 119.704)" fill="#662d91"/>
  </g>
</svg>
